<svg xmlns="http://www.w3.org/2000/svg" version="1.0" preserveAspectRatio="xMidYMid meet" viewBox="73.09 140.69 472.41 108.31">

<g transform="translate(0.000000,408.000000) scale(0.100000,-0.100000)" fill="#000000" stroke="none">
<path d="M1210 2669 c-220 -24 -409 -193 -466 -417 -12 -50 -15 -103 -12 -250 3 -180 4 -189 30 -237 34 -65 80 -108 148 -139 51 -24 66 -26 198 -26 l142 0 0 138 c0 169 -13 215 -79 282 -41 42 -81 64 -158 86 -31 8 -9 33 46 53 82 30 145 90 176 166 29 73 50 81 71 28 40 -100 87 -149 181 -189 77 -33 79 -50 6 -74 -58 -19 -112 -56 -141 -97 -40 -57 -52 -117 -52 -258 l0 -135 225 0 225 0 32 29 33 29 3 267 c2 215 0 278 -13 328 -49 196 -203 354 -391 400 -82 21 -128 24 -204 16z"/>
<path d="M4310 2095 l0 -325 60 0 60 0 0 325 0 325 -60 0 -60 0 0 -325z"/>
<path d="M2313 2396 c-77 -25 -126 -68 -171 -151 -25 -46 -27 -59 -27 -165 0 -105 2 -119 27 -165 56 -106 144 -159 268 -159 170 -1 280 108 280 279 l0 61 -130 0 -130 -1 0 -42 0 -43 69 0 c39 0 73 -5 76 -10 4 -6 -4 -32 -17 -57 -28 -57 -73 -83 -143 -83 -64 0 -111 25 -149 78 -25 35 -30 53 -34 120 -5 89 7 137 45 183 36 42 74 59 135 59 63 0 110 -25 133 -70 15 -28 19 -30 76 -30 l61 0 -8 33 c-12 56 -59 113 -118 142 -66 32 -179 42 -243 21z"/>
<path d="M3740 2086 l0 -316 178 0 c164 0 181 2 222 23 63 31 90 76 90 146 0 68 -25 114 -75 138 -19 9 -35 19 -35 22 0 3 13 13 29 23 63 35 80 140 33 206 -38 53 -87 65 -274 70 l-168 4 0 -316z m326 181 c28 -32 31 -63 9 -94 -20 -28 -73 -43 -152 -43 l-63 0 -2 33 c-4 78 -4 123 0 130 2 5 45 7 94 5 84 -3 91 -5 114 -31z m23 -251 c17 -16 21 -29 19 -64 -5 -69 -34 -86 -154 -90 l-94 -4 -2 39 c-2 42 -2 98 1 126 1 17 10 19 105 15 86 -2 108 -6 125 -22z"/>
<path d="M2914 2231 c-74 -19 -132 -81 -155 -166 -15 -52 -4 -145 21 -194 60 -118 220 -155 328 -74 30 23 62 70 62 93 0 17 -96 12 -111 -6 -18 -22 -64 -44 -92 -44 -33 0 -76 36 -93 76 -8 19 -14 36 -14 39 0 3 72 5 160 5 l160 0 0 58 c0 80 -37 153 -93 187 -46 26 -125 38 -173 26z m127 -110 c17 -17 29 -40 29 -55 l0 -26 -98 0 c-54 0 -101 3 -105 6 -9 9 11 56 35 82 33 34 101 31 139 -7z"/>
<path d="M3444 2229 c-17 -5 -39 -18 -49 -29 -24 -27 -35 -25 -35 5 0 24 -3 25 -55 25 l-55 0 0 -214 c0 -118 -3 -221 -6 -230 -5 -14 3 -16 54 -16 l61 0 3 159 c3 153 4 161 27 185 35 37 101 37 130 0 19 -24 21 -40 21 -185 l0 -159 61 0 61 0 -4 178 c-4 206 -12 231 -88 270 -47 23 -75 26 -126 11z"/>
<path d="M4662 2231 c-102 -26 -162 -114 -162 -236 1 -149 86 -235 232 -235 78 0 134 24 176 75 72 88 67 247 -12 333 -47 53 -157 82 -234 63z m127 -107 c68 -48 68 -210 0 -258 -30 -20 -93 -21 -124 0 -29 19 -55 82 -55 132 0 45 31 116 57 131 27 16 96 13 122 -5z"/>
<path d="M5153 2230 c-46 -11 -97 -52 -119 -97 -15 -29 -19 -60 -19 -135 0 -91 2 -99 30 -140 38 -54 93 -82 162 -81 51 0 116 29 127 56 10 25 5 -72 -5 -102 -19 -55 -97 -78 -158 -46 -16 8 -31 21 -34 30 -8 20 -117 22 -117 1 0 -25 46 -81 85 -103 31 -18 56 -23 111 -23 116 0 178 31 217 109 21 44 22 57 22 286 l0 240 -55 0 c-50 0 -55 -2 -58 -23 -3 -22 -3 -22 -30 -3 -26 18 -96 42 -117 40 -5 -1 -25 -5 -42 -9z m136 -104 c36 -19 51 -55 51 -121 0 -92 -36 -135 -112 -135 -65 0 -108 54 -108 135 0 107 82 166 169 121z"/>
</g>
</svg>